# xmcd CD database file
#
# Track frame offsets:
#	150
#	11833
#	26688
#	38232
#	51520
#	64369
#	79199
#	99164
#	111833
#	125680
#	137517
#	152423
#	165319
#	179724
#	191314
#	207244
#	218134
#	229006
#	242264
#
# Disc length: 3450 seconds
#
# Revision: 0
# Processed by: cddbd v1.5.2PL0 Copyright (c) Steve Scherf et al.
# Submitted via: CDex 1.70beta2
#
DISCID=fe0d7813
DTITLE=Joe Sullivan - Giants of Jazz 2
DYEAR=1900
DGENRE=Jazz
TTITLE0=Oh, Lady Be Good: Joe Sullivan and His Cafe Society Orchestra 
TTITLE1=I Can’t Give You Anything but Love: Joe Sullivan and His Cafe Society Orchestra 
TTITLE2=Coquette: Joe Sullivan and His Cafe Society Orchestra 
TTITLE3=Deuces Wild: The Three Deuces
TTITLE4=About Face: The Three Deuces
TTITLE5=Forevermore: Joe Sullivan
TTITLE6=Mammy O’Mine: Eddie Condon and His Band
TTITLE7=Clambake in B Flat: The Capitol Jazzmen
TTITLE8=I Got It Bad and That Ain’t Good: Joe Sullivan 
TTITLE9=Reflections: Joe Sullivan 
TTITLE10=Room with a View: Bud Freeman and His Orchestra
TTITLE11=Got It and Gone: Joe Sullivan Jazz Quartet
TTITLE12=After You’ve Gone: George Wettling’s Jazz Band
TTITLE13=Collier’s Clambake: George Wettling’s Jazz Band
TTITLE14=Breezin’: Joe Sullivan Trio
TTITLE15=There’ll Come a Time When You’ll Need Me: Joe Sullivan Trio
TTITLE16=Hangover Blues: Joe Sullivan 
TTITLE17=Del Mar Rag: Max Kaminsky and His Windy City Six 
TTITLE18=Liza: Joe Sullivan 
EXTD=
EXTT0=
EXTT1=
EXTT2=
EXTT3=
EXTT4=
EXTT5=
EXTT6=
EXTT7=
EXTT8=
EXTT9=
EXTT10=
EXTT11=
EXTT12=
EXTT13=
EXTT14=
EXTT15=
EXTT16=
EXTT17=
EXTT18=
PLAYORDER=
